<svg xmlns="http://www.w3.org/2000/svg" width="32" height="32" id="campaign"><path d="M30.5 1a20.06 20.06 0 0 0-7.844 1.594c-.733.33-1.395.71-2 1.062-2.974 1.717-5.495 4.016-7.562 6.563a5.11 5.11 0 0 0-1.375-.375c-1.71-.21-3.553.415-5.281 1.625-2.306 1.613-4.462 4.275-5.907 7.656-.202.412.439.899.781.594 2.093-1.623 3.723-2.491 4.875-2.688 1.065-.181 1.714.12 2.25.938-.049.115-.108.229-.156.343a.513.513 0 0 0 .094.563l4.75 4.719c.133.139.35.19.531.125.114-.047.23-.108.344-.157.84.542 1.121 1.172.938 2.25-.197 1.153-1.034 2.783-2.657 4.875-.219.341.174.865.563.75 3.38-1.444 6.074-3.57 7.687-5.875 1.536-2.193 2.103-4.586 1.25-6.625 2.913-2.331 5.512-5.26 7.282-8.75.268-.464.254-.585.406-.906A20.344 20.344 0 0 0 31 1.5a.52.52 0 0 0-.5-.5zm-.563 1.063A19.58 19.58 0 0 1 28.75 8.25l-5-5a19.324 19.324 0 0 1 6.188-1.188zM22.75 3.655l5.625 5.625-.438.844-6.062-6c.506-.292.574-.305.875-.469zm-1.781 1 6.468 6.375c-2.83 4.772-7.3 8.366-11.78 10.656-.581.291-1.167.578-1.782.844-.1.044-.212.083-.313.125l-4.218-4.25c2.172-5.123 6.115-10.494 11.625-13.75zm-.5 4.844a2.21 2.21 0 0 0-1.563.656c-.86.86-.86 2.266 0 3.125.86.86 2.266.86 3.125 0 .86-.86.86-2.265 0-3.125A2.21 2.21 0 0 0 20.47 9.5zm0 1c.311 0 .636.105.875.344a1.21 1.21 0 0 1 0 1.719 1.248 1.248 0 0 1-1.75 0 1.21 1.21 0 0 1 0-1.72 1.23 1.23 0 0 1 .875-.343zm-9.782.344c.564.007 1.106.146 1.626.312-.389.534-.757 1.114-1.126 1.688-.241.368-.494.752-.718 1.125A34.568 34.568 0 0 0 9.5 15.75c-.217.418-.399.832-.594 1.25-.016.035-.046.06-.062.094-.726-.78-1.649-1.23-2.813-1.032-1.003.171-2.196.814-3.5 1.657C3.82 15.42 5.335 13.447 7 12.28c1.057-.74 2.119-1.224 3.125-1.406a2.84 2.84 0 0 1 .563-.031zm-3.25 8.594-.343.593-.907 1.688-.156.312.25.282L9.75 25.75l.281.25.313-.188 1.625-.937.562-.344-.469-.437-4.156-4.188zm13.407.25c.503 1.58.19 3.433-1.125 5.312-1.167 1.667-3.137 3.18-5.438 4.469.846-1.308 1.485-2.495 1.656-3.5.197-1.156-.263-2.088-1.03-2.813.54-.249 1.083-.495 1.624-.781a33.19 33.19 0 0 0 1.5-.844 33.33 33.33 0 0 0 2.813-1.843zM7.656 21.093l3.25 3.218-.719.438-2.937-2.906zm-1.875 2.75-2.375 2.375.5.468 2.344-2.375zm.969.937-3.813 3.813.47.468 3.812-3.812zm.938.969-2.844 2.844.468.468 2.844-2.843zm-4.75.938-.47.468.47.469.468-.469zm-.47 2.375L2 29.53l.469.469.469-.469zm1.907 0-.469.468.469.469.469-.469z" color="#000" font-family="Sans" font-weight="400" overflow="visible" style="text-indent:0;text-align:start;line-height:normal;text-transform:none;block-progression:tb;marker:none;-inkscape-font-specification:Sans"></path></svg>